<svg id="_лой_1" data-name="‘лой 1" xmlns="http://www.w3.org/2000/svg" viewBox="0 0 215.96 207.71"><defs><style>.cls-1{fill:#ccc;}.cls-2{fill:#65cd62;}</style></defs><title>Eco 2</title><path class="cls-1" d="M92.81,78c-6.72-3.33-15.17-3.25-15.17-3.25S86.86,76,95.8,86c10.68,12,8,60.06.76,67,5.17-2.08,10.79-6,16.42-10.74-2.62-7.05-6.3-44.32,3.81-56.76,8.46-10.41,17.61-12.06,17.61-12.06s-8.44.33-15,4c-8.78,4.87-10.19,11.94-10.34,10.09s-3.29-25,2.38-34a24.21,24.21,0,0,1,9.11-8.63s-6.12,1.69-9.81,4.24c-3,2.08-5.84-24.17-5.88-24.52-.54,8.8-.59,27.29-5.58,24.52a39.91,39.91,0,0,0-9.15-3.53,34,34,0,0,1,10.22,9.19c6,8.21,3.32,31,3.26,32.89S101.81,82.47,92.81,78Z" transform="translate(-0.61)"/><path class="cls-1" d="M33.73,139.72C57.78,152.21,71.66,159.15,87.18,155c-15.75-5.41-48.58-29.56-32.93-72.16,14.65-39.87,50.78-68,50.84-67.54,0-.48,36.13,29.77,54.45,68,1.86,3.87,21.93,4.33,51.8,13.87C208.73,44.21,162.08,0,105.71,0,47.66,0,.61,44.73.61,99.9a95.18,95.18,0,0,0,6,33.39C13.51,132.49,23.87,134.6,33.73,139.72Z" transform="translate(-0.61)"/><path class="cls-2" d="M103.8,207.71c59.58,0,108.4-44.09,112.77-100-3.48-1.45-35.12-14.31-59.34-12.35C131.56,97.4,120.61,122.78,101,130c-15,5.55-25,4.16-25,4.16s-2.89,14.26,15,20.35c23.12,7.87,46.71-9.25,46.71-9.25s-14.8,25.9-54.12,23.59C57.22,167.3,43,155.45,25,146.2c-14.85-7.61-23.13-1.62-23.13-1.62s.05.78.23,2.17C20.38,182.84,59.06,207.71,103.8,207.71Z" transform="translate(-0.61)"/></svg>